<?xml version="1.0" encoding="utf-8"?>
<svg viewBox="0 0 200 80" xmlns="http://www.w3.org/2000/svg">
  <g style="" transform="matrix(0.314628, 0, 0, 0.314628, 2.663401, -15.533573)">
    <rect style="fill: rgb(0, 191, 216);" x="233.18" y="50.317" width="378.638" height="252.377" rx="20" ry="20"/>
    <path d="M 41.602 224.563 L 17.002 224.563 L 17.002 118.063 L 62.452 118.063 C 67.552 118.063 72.225 119.113 76.472 121.213 C 80.725 123.313 84.379 126.063 87.432 129.463 C 90.479 132.863 92.879 136.713 94.632 141.013 C 96.379 145.313 97.252 149.663 97.252 154.063 C 97.252 158.763 96.425 163.263 94.772 167.563 C 93.125 171.863 90.829 175.713 87.882 179.113 C 84.929 182.513 81.352 185.213 77.152 187.213 C 72.952 189.213 68.302 190.213 63.202 190.213 L 41.602 190.213 L 41.602 224.563 Z M 41.602 139.663 L 41.602 168.763 L 61.702 168.763 C 64.602 168.763 67.102 167.513 69.202 165.013 C 71.302 162.513 72.352 158.863 72.352 154.063 C 72.352 151.563 72.029 149.413 71.382 147.613 C 70.729 145.813 69.852 144.313 68.752 143.113 C 67.652 141.913 66.402 141.036 65.002 140.483 C 63.602 139.936 62.202 139.663 60.802 139.663 L 41.602 139.663 ZM 132.494 224.563 L 108.494 224.563 L 108.494 145.813 L 132.494 145.813 L 132.494 224.563 Z M 132.494 136.813 L 108.494 136.813 L 108.494 115.063 L 132.494 115.063 L 132.494 136.813 ZM 148.69 204.913 L 148.69 115.063 L 172.69 115.063 L 172.69 196.513 C 172.69 202.513 175.24 205.513 180.34 205.513 C 181.54 205.513 182.863 205.34 184.31 204.993 C 185.763 204.64 187.09 204.113 188.29 203.413 L 191.44 221.413 C 188.44 222.813 184.99 223.913 181.09 224.713 C 177.19 225.513 173.54 225.913 170.14 225.913 C 163.24 225.913 157.94 224.113 154.24 220.513 C 150.54 216.913 148.69 211.713 148.69 204.913 ZM 223.236 224.563 L 199.236 224.563 L 199.236 145.813 L 223.236 145.813 L 223.236 224.563 Z M 223.236 136.813 L 199.236 136.813 L 199.236 115.063 L 223.236 115.063 L 223.236 136.813 Z" transform="matrix(1, 0, 0, 1, 0, 0)" style="fill: rgb(51, 51, 51); white-space: pre;"/>
    <path d="M 310.243 117.064 L 316.393 117.064 L 322.543 117.064 L 328.693 117.064 L 334.843 117.064 L 334.843 143.689 L 334.843 170.314 L 334.843 196.939 L 334.843 223.564 L 328.693 223.564 L 322.543 223.564 L 316.393 223.564 L 310.243 223.564 L 310.243 212.652 L 310.243 201.739 L 310.243 190.827 L 310.243 179.914 L 299.631 179.914 L 289.018 179.914 L 278.405 179.914 L 267.793 179.914 L 267.793 190.827 L 267.793 201.739 L 267.793 212.652 L 267.793 223.564 L 261.643 223.564 L 255.493 223.564 L 249.343 223.564 L 243.193 223.564 L 243.193 196.939 L 243.193 170.314 L 243.193 143.689 L 243.193 117.064 L 249.343 117.064 L 255.493 117.064 L 261.643 117.064 L 267.793 117.064 L 267.793 127.377 L 267.793 137.689 L 267.793 148.002 L 267.793 158.314 L 278.405 158.314 L 289.018 158.314 L 299.631 158.314 L 310.243 158.314 L 310.243 148.002 L 310.243 137.689 L 310.243 127.377 L 310.243 117.064 Z M 374.89 225.064 C 373.915 225.064 372.957 225.025 372.017 224.946 C 371.076 224.868 370.152 224.75 369.245 224.594 C 368.339 224.438 367.449 224.242 366.577 224.007 C 365.704 223.772 364.849 223.497 364.01 223.184 C 363.174 222.872 362.367 222.529 361.589 222.154 C 360.812 221.779 360.064 221.373 359.345 220.936 C 358.626 220.498 357.938 220.029 357.279 219.529 C 356.619 219.029 355.99 218.497 355.39 217.934 C 354.79 217.372 354.221 216.785 353.684 216.174 C 353.146 215.562 352.64 214.925 352.165 214.264 C 351.69 213.603 351.246 212.916 350.834 212.204 C 350.421 211.492 350.04 210.755 349.69 209.994 C 349.34 209.23 349.034 208.45 348.771 207.652 C 348.509 206.855 348.29 206.04 348.115 205.209 C 347.94 204.377 347.809 203.529 347.721 202.663 C 347.634 201.797 347.59 200.914 347.59 200.014 C 347.59 199.039 347.641 198.086 347.744 197.155 C 347.847 196.224 348.002 195.314 348.208 194.427 C 348.413 193.539 348.671 192.674 348.979 191.83 C 349.288 190.986 349.648 190.164 350.06 189.364 C 350.473 188.564 350.929 187.792 351.426 187.049 C 351.924 186.305 352.463 185.589 353.045 184.902 C 353.627 184.214 354.251 183.555 354.916 182.924 C 355.582 182.292 356.29 181.689 357.04 181.114 C 357.79 180.539 358.574 179.995 359.393 179.483 C 360.212 178.97 361.065 178.489 361.953 178.039 C 362.84 177.589 363.762 177.17 364.718 176.783 C 365.674 176.395 366.665 176.039 367.69 175.714 C 368.715 175.389 369.768 175.105 370.85 174.861 C 371.931 174.617 373.041 174.414 374.178 174.252 C 375.316 174.089 376.481 173.967 377.675 173.886 C 378.868 173.805 380.09 173.764 381.34 173.764 C 382.165 173.764 382.984 173.781 383.796 173.815 C 384.609 173.849 385.415 173.9 386.215 173.969 C 387.015 174.037 387.809 174.123 388.596 174.225 C 389.384 174.328 390.165 174.447 390.94 174.584 C 391.715 174.722 392.465 174.878 393.19 175.05 C 393.915 175.223 394.615 175.412 395.29 175.619 C 395.965 175.825 396.615 176.049 397.24 176.29 C 397.865 176.531 398.465 176.789 399.04 177.064 L 399.04 176.164 L 399.04 175.264 L 399.04 174.364 L 399.04 173.464 C 399.04 171.189 398.712 169.198 398.056 167.492 C 397.4 165.785 396.415 164.363 395.103 163.226 C 393.79 162.088 392.15 161.235 390.181 160.667 C 388.212 160.098 385.915 159.814 383.29 159.814 C 382.215 159.814 381.152 159.859 380.102 159.95 C 379.052 160.041 378.015 160.177 376.99 160.359 C 375.965 160.54 374.952 160.767 373.952 161.04 C 372.952 161.312 371.965 161.63 370.99 161.994 C 370.015 162.355 369.027 162.762 368.027 163.215 C 367.027 163.667 366.015 164.165 364.99 164.709 C 363.965 165.252 362.927 165.841 361.877 166.475 C 360.827 167.109 359.765 167.789 358.69 168.514 L 356.927 164.764 L 355.165 161.014 L 353.402 157.264 L 351.64 153.514 C 352.94 152.664 354.252 151.867 355.577 151.124 C 356.902 150.38 358.24 149.689 359.59 149.052 C 360.94 148.414 362.302 147.83 363.677 147.299 C 365.052 146.767 366.44 146.289 367.84 145.864 C 369.24 145.439 370.662 145.067 372.106 144.749 C 373.55 144.43 375.015 144.164 376.503 143.952 C 377.99 143.739 379.5 143.58 381.031 143.474 C 382.562 143.367 384.115 143.314 385.69 143.314 C 388.665 143.314 391.471 143.489 394.109 143.839 C 396.746 144.189 399.215 144.714 401.515 145.414 C 403.815 146.114 405.946 146.989 407.909 148.039 C 409.871 149.089 411.665 150.314 413.29 151.714 C 414.915 153.114 416.337 154.676 417.556 156.401 C 418.775 158.126 419.79 160.014 420.603 162.064 C 421.415 164.114 422.025 166.326 422.431 168.701 C 422.837 171.076 423.04 173.614 423.04 176.314 L 423.04 181.376 L 423.04 186.439 L 423.04 191.501 L 423.04 196.564 C 423.04 197.164 423.063 197.719 423.111 198.228 C 423.158 198.738 423.228 199.202 423.323 199.622 C 423.417 200.041 423.534 200.415 423.676 200.744 C 423.817 201.072 423.981 201.356 424.17 201.594 C 424.356 201.831 424.579 202.044 424.838 202.234 C 425.097 202.424 425.392 202.591 425.723 202.734 C 426.053 202.877 426.42 202.997 426.823 203.094 C 427.226 203.191 427.665 203.264 428.14 203.314 L 428.14 208.376 L 428.14 213.439 L 428.14 218.501 L 428.14 223.564 C 427.615 223.689 427.102 223.803 426.602 223.906 C 426.102 224.009 425.615 224.1 425.14 224.181 C 424.665 224.262 424.202 224.332 423.752 224.391 C 423.302 224.45 422.865 224.497 422.44 224.534 C 422.015 224.572 421.599 224.606 421.193 224.635 C 420.786 224.663 420.389 224.687 420.002 224.706 C 419.614 224.725 419.236 224.74 418.868 224.75 C 418.499 224.759 418.14 224.764 417.79 224.764 C 416.665 224.764 415.609 224.709 414.621 224.6 C 413.634 224.49 412.715 224.325 411.865 224.106 C 411.015 223.887 410.234 223.613 409.521 223.285 C 408.809 222.956 408.165 222.572 407.59 222.134 C 407.015 221.697 406.493 221.215 406.024 220.688 C 405.555 220.16 405.139 219.587 404.777 218.969 C 404.414 218.35 404.105 217.687 403.849 216.978 C 403.593 216.268 403.39 215.514 403.24 214.714 L 403.127 213.814 L 403.015 212.914 L 402.902 212.014 L 402.79 211.114 C 401.915 212.239 400.998 213.298 400.039 214.292 C 399.08 215.286 398.078 216.214 397.035 217.077 C 395.991 217.939 394.906 218.736 393.778 219.467 C 392.651 220.198 391.481 220.864 390.27 221.464 C 389.056 222.064 387.826 222.589 386.578 223.039 C 385.331 223.489 384.066 223.864 382.785 224.164 C 381.503 224.464 380.205 224.689 378.889 224.839 C 377.573 224.989 376.24 225.064 374.89 225.064 Z M 381.94 207.814 C 382.59 207.814 383.236 207.786 383.876 207.73 C 384.517 207.673 385.154 207.589 385.785 207.477 C 386.417 207.365 387.044 207.224 387.666 207.055 C 388.289 206.886 388.907 206.689 389.52 206.464 C 390.131 206.239 390.717 205.995 391.276 205.733 C 391.835 205.47 392.367 205.189 392.873 204.889 C 393.378 204.589 393.858 204.27 394.311 203.933 C 394.764 203.595 395.19 203.239 395.59 202.864 C 396.165 202.414 396.668 201.958 397.099 201.495 C 397.53 201.033 397.889 200.564 398.177 200.089 C 398.465 199.614 398.68 199.133 398.824 198.645 C 398.968 198.158 399.04 197.664 399.04 197.164 L 399.04 195.289 L 399.04 193.414 L 399.04 191.539 L 399.04 189.664 C 398.515 189.464 397.979 189.275 397.432 189.097 C 396.885 188.919 396.327 188.753 395.758 188.597 C 395.189 188.441 394.608 188.296 394.017 188.162 C 393.426 188.028 392.824 187.906 392.21 187.794 C 391.599 187.681 390.998 187.582 390.408 187.497 C 389.818 187.412 389.239 187.341 388.67 187.284 C 388.102 187.228 387.544 187.185 386.997 187.157 C 386.451 187.128 385.915 187.114 385.39 187.114 C 384.29 187.114 383.238 187.177 382.235 187.302 C 381.232 187.427 380.277 187.614 379.37 187.864 C 378.464 188.114 377.605 188.427 376.795 188.802 C 375.985 189.177 375.224 189.614 374.51 190.114 C 373.799 190.614 373.176 191.152 372.642 191.727 C 372.108 192.302 371.664 192.914 371.308 193.564 C 370.952 194.214 370.685 194.902 370.507 195.627 C 370.329 196.352 370.24 197.114 370.24 197.914 C 370.24 198.639 370.309 199.331 370.446 199.991 C 370.584 200.651 370.79 201.278 371.065 201.872 C 371.34 202.466 371.684 203.028 372.096 203.556 C 372.509 204.085 372.99 204.581 373.54 205.044 C 374.09 205.506 374.678 205.91 375.303 206.256 C 375.928 206.603 376.59 206.891 377.29 207.122 C 377.99 207.353 378.728 207.526 379.503 207.641 C 380.278 207.756 381.09 207.814 381.94 207.814 Z M 490.238 225.064 C 488.738 225.064 487.288 224.986 485.888 224.83 C 484.488 224.674 483.138 224.44 481.838 224.127 C 480.538 223.815 479.288 223.424 478.088 222.955 C 476.888 222.486 475.738 221.939 474.638 221.314 C 473.538 220.689 472.501 220.002 471.525 219.252 C 470.55 218.502 469.638 217.689 468.788 216.814 C 467.938 215.939 467.15 215.002 466.425 214.002 C 465.7 213.002 465.038 211.939 464.438 210.814 L 464.438 221.989 L 464.438 233.164 L 464.438 244.339 L 464.438 255.514 L 458.438 255.514 L 452.438 255.514 L 446.438 255.514 L 440.438 255.514 L 440.438 227.839 L 440.438 200.164 L 440.438 172.489 L 440.438 144.814 L 445.65 144.814 L 450.863 144.814 L 456.075 144.814 L 461.288 144.814 L 461.288 148.002 L 461.288 151.189 L 461.288 154.377 L 461.288 157.564 C 462.013 156.439 462.783 155.377 463.599 154.377 C 464.415 153.377 465.276 152.439 466.183 151.564 C 467.09 150.689 468.042 149.877 469.04 149.127 C 470.037 148.377 471.08 147.689 472.168 147.064 C 473.255 146.439 474.393 145.892 475.583 145.424 C 476.773 144.955 478.015 144.565 479.308 144.252 C 480.601 143.94 481.946 143.705 483.343 143.549 C 484.74 143.392 486.188 143.314 487.688 143.314 C 489.013 143.314 490.311 143.379 491.584 143.511 C 492.856 143.642 494.101 143.839 495.321 144.102 C 496.54 144.365 497.733 144.693 498.899 145.086 C 500.065 145.48 501.205 145.939 502.318 146.464 C 503.43 146.989 504.504 147.563 505.541 148.185 C 506.577 148.807 507.576 149.478 508.538 150.197 C 509.5 150.916 510.424 151.684 511.311 152.5 C 512.197 153.316 513.046 154.181 513.858 155.094 C 514.671 156.006 515.441 156.959 516.167 157.952 C 516.893 158.945 517.575 159.979 518.213 161.054 C 518.851 162.129 519.446 163.245 519.997 164.401 C 520.547 165.558 521.054 166.755 521.518 167.994 C 521.979 169.231 522.383 170.491 522.73 171.775 C 523.076 173.059 523.365 174.366 523.596 175.697 C 523.826 177.027 523.999 178.382 524.115 179.76 C 524.23 181.137 524.288 182.539 524.288 183.964 C 524.288 185.439 524.235 186.886 524.128 188.305 C 524.022 189.724 523.862 191.114 523.65 192.477 C 523.437 193.839 523.172 195.173 522.853 196.479 C 522.535 197.786 522.163 199.064 521.738 200.314 C 521.313 201.564 520.847 202.772 520.341 203.937 C 519.834 205.102 519.287 206.225 518.7 207.306 C 518.112 208.387 517.484 209.426 516.816 210.422 C 516.147 211.418 515.438 212.372 514.688 213.284 C 513.938 214.197 513.15 215.062 512.325 215.878 C 511.5 216.694 510.638 217.462 509.738 218.181 C 508.838 218.9 507.9 219.571 506.925 220.193 C 505.95 220.815 504.938 221.389 503.888 221.914 C 502.838 222.439 501.766 222.898 500.672 223.292 C 499.578 223.686 498.462 224.014 497.325 224.277 C 496.187 224.539 495.028 224.736 493.847 224.867 C 492.666 224.998 491.463 225.064 490.238 225.064 Z M 482.138 204.814 C 482.788 204.814 483.424 204.778 484.046 204.707 C 484.668 204.635 485.275 204.528 485.868 204.384 C 486.462 204.241 487.041 204.062 487.606 203.847 C 488.171 203.632 488.722 203.381 489.258 203.094 C 489.797 202.806 490.318 202.494 490.822 202.159 C 491.326 201.824 491.812 201.466 492.281 201.084 C 492.75 200.703 493.202 200.298 493.636 199.869 C 494.071 199.441 494.488 198.989 494.888 198.514 C 495.288 198.039 495.665 197.544 496.018 197.028 C 496.371 196.513 496.702 195.978 497.008 195.422 C 497.315 194.866 497.598 194.29 497.858 193.694 C 498.118 193.098 498.355 192.481 498.568 191.844 C 498.78 191.206 498.965 190.56 499.124 189.906 C 499.283 189.253 499.415 188.591 499.521 187.922 C 499.626 187.253 499.706 186.576 499.759 185.891 C 499.811 185.206 499.838 184.514 499.838 183.814 C 499.838 183.089 499.808 182.378 499.749 181.682 C 499.689 180.985 499.6 180.303 499.481 179.634 C 499.362 178.965 499.213 178.311 499.034 177.671 C 498.855 177.031 498.646 176.405 498.408 175.794 C 498.172 175.181 497.913 174.588 497.632 174.015 C 497.352 173.443 497.049 172.89 496.724 172.359 C 496.399 171.827 496.052 171.316 495.682 170.825 C 495.313 170.334 494.921 169.864 494.508 169.414 C 494.096 168.964 493.663 168.539 493.207 168.139 C 492.752 167.739 492.274 167.364 491.774 167.014 C 491.274 166.664 490.752 166.339 490.207 166.039 C 489.663 165.739 489.096 165.464 488.508 165.214 C 487.921 164.964 487.324 164.745 486.715 164.558 C 486.107 164.37 485.487 164.214 484.856 164.089 C 484.225 163.964 483.583 163.87 482.93 163.808 C 482.277 163.745 481.613 163.714 480.938 163.714 C 480.113 163.714 479.296 163.775 478.487 163.897 C 477.678 164.019 476.877 164.202 476.083 164.447 C 475.29 164.691 474.505 164.996 473.727 165.362 C 472.95 165.728 472.18 166.155 471.418 166.644 C 470.655 167.13 469.937 167.659 469.265 168.231 C 468.592 168.802 467.965 169.416 467.383 170.072 C 466.802 170.727 466.265 171.425 465.774 172.166 C 465.284 172.906 464.838 173.689 464.438 174.514 L 464.438 178.564 L 464.438 182.614 L 464.438 186.664 L 464.438 190.714 C 464.838 191.714 465.29 192.673 465.793 193.592 C 466.296 194.51 466.85 195.388 467.456 196.226 C 468.062 197.063 468.719 197.86 469.428 198.617 C 470.136 199.373 470.897 200.089 471.708 200.764 C 472.522 201.439 473.349 202.029 474.19 202.536 C 475.032 203.042 475.887 203.463 476.756 203.801 C 477.625 204.138 478.508 204.392 479.405 204.561 C 480.302 204.729 481.213 204.814 482.138 204.814 Z M 574.086 225.064 C 572.436 225.064 570.828 224.997 569.263 224.863 C 567.698 224.729 566.175 224.528 564.694 224.259 C 563.213 223.991 561.774 223.656 560.378 223.253 C 558.982 222.851 557.628 222.381 556.316 221.844 C 555.003 221.306 553.74 220.719 552.526 220.084 C 551.313 219.449 550.15 218.766 549.036 218.034 C 547.923 217.302 546.859 216.522 545.846 215.694 C 544.833 214.866 543.87 213.989 542.956 213.064 C 542.045 212.139 541.188 211.178 540.385 210.182 C 539.583 209.185 538.834 208.153 538.141 207.084 C 537.448 206.016 536.809 204.912 536.225 203.772 C 535.641 202.632 535.111 201.456 534.636 200.244 C 534.161 199.031 533.746 197.804 533.389 196.563 C 533.033 195.321 532.737 194.066 532.499 192.797 C 532.262 191.528 532.083 190.244 531.964 188.947 C 531.846 187.65 531.786 186.339 531.786 185.014 C 531.786 183.589 531.846 182.185 531.964 180.8 C 532.083 179.416 532.262 178.053 532.499 176.709 C 532.737 175.366 533.033 174.043 533.389 172.74 C 533.746 171.438 534.161 170.156 534.636 168.894 C 535.111 167.631 535.639 166.406 536.221 165.221 C 536.802 164.036 537.436 162.891 538.124 161.784 C 538.811 160.678 539.552 159.61 540.346 158.582 C 541.139 157.553 541.986 156.564 542.886 155.614 C 543.786 154.664 544.738 153.764 545.74 152.914 C 546.743 152.064 547.798 151.264 548.903 150.514 C 550.009 149.764 551.166 149.064 552.375 148.414 C 553.584 147.764 554.844 147.164 556.156 146.614 C 557.469 146.064 558.828 145.583 560.232 145.17 C 561.635 144.758 563.084 144.414 564.578 144.139 C 566.073 143.864 567.612 143.658 569.197 143.52 C 570.781 143.383 572.411 143.314 574.086 143.314 C 575.761 143.314 577.389 143.383 578.971 143.52 C 580.552 143.658 582.087 143.864 583.574 144.139 C 585.062 144.414 586.502 144.758 587.896 145.17 C 589.289 145.583 590.636 146.064 591.936 146.614 C 593.236 147.164 594.486 147.763 595.686 148.41 C 596.886 149.057 598.036 149.753 599.136 150.497 C 600.236 151.241 601.286 152.034 602.286 152.875 C 603.286 153.716 604.236 154.606 605.136 155.544 C 606.036 156.481 606.882 157.454 607.672 158.463 C 608.463 159.471 609.2 160.516 609.881 161.597 C 610.563 162.678 611.649 164.547 611.861 165.078 C 612.073 165.609 611.81 191.331 611.825 191.614 L 600.936 191.614 L 586.386 191.614 L 571.836 191.614 L 557.286 191.614 C 557.386 192.939 557.582 194.184 557.872 195.35 C 558.163 196.515 558.55 197.601 559.031 198.606 C 559.513 199.612 560.09 200.538 560.763 201.384 C 561.435 202.231 562.203 202.997 563.066 203.684 C 563.928 204.372 564.82 204.974 565.741 205.491 C 566.662 206.007 567.613 206.437 568.594 206.781 C 569.575 207.126 570.585 207.384 571.625 207.556 C 572.666 207.728 573.736 207.814 574.836 207.814 C 575.711 207.814 576.578 207.761 577.437 207.655 C 578.296 207.549 579.148 207.39 579.991 207.177 C 580.835 206.965 581.67 206.699 582.498 206.38 C 583.325 206.061 584.145 205.689 584.956 205.264 C 585.77 204.839 586.516 204.377 587.194 203.877 C 587.873 203.377 588.484 202.839 589.028 202.264 C 589.573 201.689 590.05 201.077 590.459 200.427 C 590.869 199.777 591.211 199.089 591.486 198.364 L 596.586 199.789 L 601.686 201.214 L 606.786 202.639 L 611.886 204.064 C 611.111 205.614 610.23 207.092 609.242 208.499 C 608.255 209.905 607.161 211.24 605.961 212.502 C 604.761 213.765 603.455 214.955 602.042 216.074 C 600.63 217.192 599.111 218.239 597.486 219.214 C 595.861 220.189 594.155 221.042 592.367 221.774 C 590.58 222.505 588.711 223.115 586.761 223.602 C 584.811 224.089 582.78 224.455 580.667 224.698 C 578.555 224.942 576.361 225.064 574.086 225.064 Z M 556.836 176.764 L 565.311 176.764 L 573.786 176.764 L 582.261 176.764 L 590.736 176.764 C 590.611 175.514 590.405 174.33 590.117 173.211 C 589.83 172.092 589.461 171.039 589.011 170.052 C 588.561 169.065 588.03 168.143 587.417 167.286 C 586.805 166.43 586.111 165.639 585.336 164.914 C 584.561 164.189 583.739 163.555 582.871 163.011 C 582.002 162.468 581.087 162.015 580.124 161.652 C 579.162 161.29 578.152 161.018 577.096 160.836 C 576.039 160.655 574.936 160.564 573.786 160.564 C 572.611 160.564 571.488 160.656 570.416 160.841 C 569.345 161.026 568.325 161.303 567.356 161.672 C 566.388 162.041 565.472 162.503 564.607 163.056 C 563.742 163.61 562.928 164.256 562.166 164.994 C 561.403 165.731 560.72 166.529 560.116 167.388 C 559.512 168.246 558.988 169.166 558.544 170.147 C 558.1 171.128 557.735 172.169 557.45 173.272 C 557.166 174.375 556.961 175.539 556.836 176.764 Z" style="fill: rgb(255, 255, 255); white-space: pre;"/>
  </g>
</svg>